:SAMPLES-PER-SECOND 30
:FULLY-SPECIFIED
:DEGREES
548
root  7.00684 34.9345 -0.550586 -32.7521 -77.4572 41.149
RightUpLeg  -31.4011 -17.2375 -32.6121
RightLeg  31.2861 -2.26673 -1.7217
RightFoot  3.05652 -3.71063 28.9602
RightToes  -2.32832e-010 0 -3.6325e-017
Spine  35.7185 5.06163 11.2529
Spine1  -3.31333 11.7237 -18.3247
HEad  -43.2434 -26.0542 9.45135
LeftShoulder1  0.779171 -0.589522 -11.8796
LeftArm  -4.46778 23.9282 -21.0433
LeftForeArm  30.6712 6.29724 -12.2693
LeftHand  0.529584 7.78142 25.5176
RightShoulder  0.00775735 -2.81596 -8.84362
RightArm  -53.2631 41.1696 -8.6967
RightForeArm  1.23659 -6.23426 2.48957
RightHand  -0.0392585 -4.95434 -4.24865
LeftUpLeg  -30.5011 2.5626 16.3393
LeftLeg  28.5163 3.67581 2.52584
LeftFoot  -1.71009 2.74123 -31.6605
LeftToes  2.2737e-010 4.38529e-011 2.18788e-011
549
root  6.84989 35.1188 -0.770203 -46.4111 -75.4324 55.1202
RightUpLeg  -31.6717 -14.2653 -36.7202
RightLeg  31.6243 -4.05307 -2.92189
RightFoot  2.95179 -3.6302 28.5569
RightToes  -2.32832e-010 0 -3.6325e-017
Spine  35.4953 3.58149 10.2681
Spine1  -1.64116 11.6372 -26.6893
HEad  -43.981 -25.6937 12.9592
LeftShoulder1  0.676142 -0.183383 -11.1256
LeftArm  -4.54968 23.0036 -19.2258
LeftForeArm  29.67 6.40375 -12.1601
LeftHand  0.518681 7.77992 25.0531
RightShoulder  0.0224447 -1.16263 -8.66231
RightArm  -50.2838 42.2409 -6.0815
RightForeArm  1.34281 -6.42943 3.62978
RightHand  -0.048122 -4.71805 -4.53913
LeftUpLeg  -27.6763 5.60529 11.9465
LeftLeg  24.0551 2.27479 1.47016
LeftFoot  -0.170382 3.15488 -31.4989
LeftToes  2.2737e-010 4.38529e-011 2.18788e-011
550
root  6.64294 35.2675 -0.949965 -49.05 -73.9519 57.407
RightUpLeg  -30.7034 -13.5634 -38.4212
RightLeg  31.84 -4.56398 -3.28389
RightFoot  2.49611 -3.52224 28.6075
RightToes  -2.32832e-010 0 -3.6325e-017
Spine  35.2659 2.74951 10.2173
Spine1  -0.324604 11.8072 -30.8206
HEad  -43.6213 -26.5932 13.9865
LeftShoulder1  0.617816 0.211862 -11.5957
LeftArm  -4.44865 22.4604 -18.125
LeftForeArm  29.2643 6.02781 -12.1649
LeftHand  0.515535 7.75317 25.1777
RightShoulder  0.0297477 -0.0450305 -8.77551
RightArm  -49.0798 43.2905 -4.95344
RightForeArm  2.42887 -6.54706 4.25967
RightHand  -0.0547242 -4.56464 -4.74473
LeftUpLeg  -25.2141 8.42418 9.9343
LeftLeg  20.4189 -0.27647 0.224124
LeftFoot  0.925432 3.49899 -31.8406
LeftToes  2.2737e-010 4.38529e-011 2.18788e-011
551
root  6.48547 35.3475 -1.15289 -45.8306 -73.7538 52.8104
RightUpLeg  -28.8725 -13.872 -37.7536
RightLeg  32.4358 -4.27117 -3.15728
RightFoot  1.65552 -3.30085 28.5159
RightToes  -2.32832e-010 0 -3.6325e-017
Spine  35.7276 3.38556 9.9525
Spine1  0.650067 12.3844 -29.2647
HEad  -43.5335 -28.6736 13.6273
LeftShoulder1  0.668487 0.214507 -13.2977
LeftArm  -4.38463 22.6929 -18.5899
LeftForeArm  29.0836 5.47521 -12.2827
LeftHand  0.57565 7.89991 26.3178
RightShoulder  0.0455251 0.0646459 -8.26431
RightArm  -50.7755 44.2928 -5.60476
RightForeArm  3.90376 -6.49754 3.88722
RightHand  -0.0584828 -4.57414 -5.39414
LeftUpLeg  -23.1263 8.54029 10.8759
LeftLeg  18.5824 -1.47829 -0.140341
LeftFoot  1.58382 3.76406 -32.4935
LeftToes  2.2737e-010 4.38529e-011 2.18788e-011
552
root  6.36762 35.3942 -1.447 -32.6362 -74.5783 38.2924
RightUpLeg  -27.0351 -14.1877 -33.8648
RightLeg  33.3118 -4.793 -3.62829
RightFoot  0.681215 -2.98446 27.8615
RightToes  -2.32832e-010 0 -3.6325e-017
Spine  35.921 5.34228 9.89115
Spine1  0.555095 13.0326 -22.1824
HEad  -42.9967 -31.3412 11.9339
LeftShoulder1  0.724579 0.140547 -14.6537
LeftArm  -5.20985 24.1761 -22.3236
LeftForeArm  28.6152 5.14669 -12.3263
LeftHand  0.636317 8.08501 27.021
RightShoulder  0.0835582 -0.389028 -6.6553
RightArm  -54.0873 45.5439 -7.6781
RightForeArm  5.68926 -6.38932 3.16465
RightHand  -0.0623996 -4.63175 -6.49994
LeftUpLeg  -22.7452 6.59606 15.2306
LeftLeg  18.3307 -1.60993 -0.117322
LeftFoot  1.97305 3.96543 -33.1996
LeftToes  2.2737e-010 4.38529e-011 2.18788e-011
553
root  6.17652 35.4763 -1.75428 -5.00562 -73.5446 10.4753
RightUpLeg  -25.1512 -15.9108 -25.9711
RightLeg  33.1352 -6.47104 -4.76208
RightFoot  0.0622549 -2.74706 27.0452
RightToes  -2.32832e-010 0 -3.6325e-017
Spine  34.652 7.48152 11.6442
Spine1  -1.8176 13.1821 -11.0007
HEad  -39.8764 -33.9284 7.91003
LeftShoulder1  0.702536 0.213553 -14.437
LeftArm  -7.37745 27.4041 -29.6868
LeftForeArm  28.0782 5.21009 -12.1867
LeftHand  0.586355 7.97822 26.0265
RightShoulder  0.126381 -0.69933 -4.57237
RightArm  -56.4003 47.2927 -10.7534
RightForeArm  6.99411 -6.41829 3.28425
RightHand  -0.0640626 -4.68143 -7.34107
LeftUpLeg  -25.2921 4.35334 23.0887
LeftLeg  18.6482 -2.40675 -0.574459
LeftFoot  2.23189 4.11813 -33.7899
LeftToes  2.2737e-010 4.38529e-011 2.18788e-011
554
root  5.86525 35.6067 -1.93434 20.642 -67.2232 -15.0891
RightUpLeg  -22.1172 -20.4381 -16.1538
RightLeg  30.6482 -7.95628 -5.30305
RightFoot  0.0726373 -2.70122 26.5834
RightToes  -2.32832e-010 0 -3.6325e-017
Spine  32.9211 8.95426 15.0274
Spine1  -6.68891 13.0104 1.74708
HEad  -34.3928 -35.938 2.18295
LeftShoulder1  0.723197 -0.0444252 -13.3937
LeftArm  -10.4873 31.9537 -38.479
LeftForeArm  28.2835 5.57443 -11.9462
LeftHand  0.452365 7.55878 24.1855
RightShoulder  0.143468 -1.01975 -3.0862
RightArm  -57.2792 49.548 -14.3711
RightForeArm  6.62673 -6.59553 4.34782
RightHand  -0.056015 -4.82164 -7.31511
LeftUpLeg  -29.4089 1.8576 32.5972
LeftLeg  18.4007 -3.92427 -1.13406
LeftFoot  2.52071 4.22713 -33.9579
LeftToes  2.2737e-010 4.38529e-011 2.18788e-011
555
root  5.54322 35.7105 -2.01216 29.4735 -59.3885 -24.9464
RightUpLeg  -17.8353 -26.1447 -8.98989
RightLeg  27.1863 -8.22716 -4.79744
RightFoot  0.259775 -2.73656 26.5074
RightToes  -2.32832e-010 0 -3.6325e-017
Spine  32.4701 9.69529 17.7677
Spine1  -11.3889 13.2224 12.0513
HEad  -30.7105 -37.2099 -1.53238
LeftShoulder1  0.877179 -0.830332 -13.1987
LeftArm  -13.3281 35.4948 -45.6482
LeftForeArm  29.2011 5.94543 -11.8106
LeftHand  0.350805 7.17177 23.0518
RightShoulder  0.101835 -1.81692 -2.87832
RightArm  -59.285 51.7299 -17.4912
RightForeArm  5.18922 -6.67223 4.8622
RightHand  -0.042891 -5.02001 -6.76653
LeftUpLeg  -32.4106 -2.53683 40.6707
LeftLeg  17.5354 -3.90111 -1.06731
LeftFoot  2.84593 4.27422 -33.5763
LeftToes  2.2737e-010 4.38529e-011 2.18788e-011
556
root  5.37076 35.6935 -2.0886 29.9834 -55.4726 -26.941
RightUpLeg  -14.8285 -28.9346 -6.82698
RightLeg  26.1197 -8.22594 -4.59926
RightFoot  -0.081954 -2.67368 26.6633
RightToes  -2.32832e-010 0 -3.6325e-017
Spine  32.7662 9.78306 19.0824
Spine1  -12.0258 13.4417 16.2769
HEad  -32.3625 -37.8301 -0.0285256
LeftShoulder1  1.00971 -1.27232 -14.2365
LeftArm  -14.6252 35.5743 -49.5934
LeftForeArm  29.679 5.90326 -11.9119
LeftHand  0.347508 7.16657 22.9061
RightShoulder  0.0471549 -2.62471 -3.66193
RightArm  -63.7774 52.7868 -18.8391
RightForeArm  4.89804 -6.44515 3.53106
RightHand  -0.0384983 -5.09982 -6.67027
LeftUpLeg  -33.614 -7.12615 44.7378
LeftLeg  17.4955 -2.39338 -0.524776
LeftFoot  2.80452 4.20696 -33.1679
LeftToes  2.2737e-010 4.38529e-011 2.18788e-011
557
root  5.38728 35.5105 -2.1756 27.6318 -56.5463 -25.0475
RightUpLeg  -15.6132 -27.0105 -8.65387
RightLeg  29.1521 -8.77474 -5.50719
RightFoot  -1.21068 -2.44218 26.9856
RightToes  -2.32832e-010 0 -3.6325e-017
Spine  32.5072 9.3041 19.6752
Spine1  -8.43864 13.1927 13.0793
HEad  -37.1054 -37.8379 5.41972
LeftShoulder1  0.961196 -0.897235 -14.9726
LeftArm  -14.5925 32.6984 -51.0902
LeftForeArm  29.3478 5.34342 -12.1057
LeftHand  0.397861 7.39781 23.1365
RightShoulder  0.0408633 -2.64515 -4.34072
RightArm  -67.5111 52.3363 -17.5439
RightForeArm  6.65645 -6.1083 1.48026
RightHand  -0.048174 -4.9632 -7.43681
LeftUpLeg  -33.6019 -8.26754 43.6653
LeftLeg  19.1412 -1.69464 -0.341897
LeftFoot  2.11699 4.00771 -33.1991
LeftToes  2.2737e-010 4.38529e-011 2.18788e-011
558
root  5.50555 35.2145 -2.24897 20.9783 -60.919 -17.6704
RightUpLeg  -19.1162 -23.7842 -14.1112
RightLeg  34.5286 -8.22922 -6.2764
RightFoot  -2.74604 -2.10497 27.2649
RightToes  -2.32832e-010 0 -3.6325e-017
Spine  32.5576 8.35075 19.0654
Spine1  -4.75784 13.1681 3.56473
HEad  -39.6905 -37.8795 11.1756
LeftShoulder1  0.831655 -0.42207 -14.2603
LeftArm  -14.0199 29.7384 -50.9156
LeftForeArm  29.2782 4.66266 -12.1882
LeftHand  0.389873 7.32487 23.5026
RightShoulder  0.0919592 -1.6601 -4.11144
RightArm  -66.3138 51.2074 -13.9384
RightForeArm  8.98401 -6.02389 0.913806
RightHand  -0.0613628 -4.80668 -8.46976
LeftUpLeg  -32.6618 -5.75393 37.6513
LeftLeg  21.4356 -2.59517 -0.801453
LeftFoot  1.17907 3.74056 -33.276
LeftToes  2.2737e-010 4.38529e-011 2.18788e-011
